{"title":"Star Wars The Force Awakens 2015 HDTS XviD-INFERNO","uid":13144493,"size":1687700774,"categoryP":"video","categoryS":"movies","magnet":"?xt=urn:btih:470062f016a9ef9ffbb99a9d3aec29dc67c88acb&amp;dn=Star+Wars+The+Force+Awakens+2015+HDTS+XviD-INFERNO&amp;tr=udp%3A%2F%2Ftracker.leechers-paradise.org%3A6969&amp;tr=udp%3A%2F%2Fzer0day.ch%3A1337&amp;tr=udp%3A%2F%2Fopen.demonii.com%3A1337&amp;tr=udp%3A%2F%2Ftracker.coppersurfer.tk%3A6969&amp;tr=udp%3A%2F%2Fexodus.desync.com%3A6969","seeders":9,"leechers":4,"uploader":".BONE.","files":1,"time":1452010642,"description":"[IMG]http://lookpic.com/O/i2/1955/pvWdAwO.jpeg[/IMG]\r\n \r\n[IMG]http://lookpic.com/O/i2/1795/QsnyWPGP.jpeg[/IMG]\r\n \r\nSource: CHeWbacca/russia...thanks\r\nLine Audio: Th0ravege...thanks\r\n \r\nFormat                           : AVI\r\nFormat/Info                      : Audio Video Interleave\r\nFile size                        : 1.57 GiB\r\nDuration                         : 2h 7mn\r\nOverall bit rate                 : 1 771 Kbps\r\nWriting application              : VirtualDubMod 1.5.10.2 (build 2540/release)\r\nWriting library                  : VirtualDub build 35491/release\r\n \r\nVideo\r\nID                               : 0\r\nFormat                           : MPEG-4 Visual\r\nFormat profile                   : Advanced   \r\nFormat settings, BVOP            : Yes\r\nFormat settings, QPel            : No\r\nFormat settings, GMC             : No warppoints\r\nFormat settings, Matrix          : Default (H.263)\r\nMuxing mode                      : Packed bitstream\r\nCodec ID                         : XVID\r\nCodec ID/Hint                    : XviD\r\nDuration                         : 2h 7mn\r\nBit rate                         : 1 600 Kbps\r\nWidth                            : 720 pixels\r\nHeight                           : 320 pixels\r\nDisplay aspect ratio             : 2.25:1\r\nFrame rate                       : 29.970 fps\r\nColor space                      : YUV\r\nChroma subsampling               : 4:2:0\r\nBit depth                        : 8 bits\r\nScan type                        : Progressive\r\nBits/(Pixel*Frame)               : 0.232\r\nStream size                      : 1.42 GiB (90%)\r\nWriting library                  : XviD 1.2.1 (UTC 2008-12-04)\r\n \r\nAudio\r\nID                               : 1\r\nFormat                           : MPEG Audio\r\nFormat version                   : Version 1\r\nFormat profile                   : Layer 3\r\nMode                             : Joint stereo\r\nMode extension                   : MS Stereo\r\nCodec ID                         : 55\r\nCodec ID/Hint                    : MP3\r\nDuration                         : 2h 7mn\r\nBit rate mode                    : Constant\r\nBit rate                         : 160 Kbps\r\nChannel(s)                       : 2 channels\r\nSampling rate                    : 44.1 KHz\r\nStream size                      : 145 MiB (9%)\r\nAlignment                        : Split accross interleaves\r\nInterleave, duration             : 33 ms (1.00 video frame)\r\nInterleave, preload duration     : 500 ms\r\n \r\nWorkdone:\r\nFix AR, perspective and rotated the video, adjusted contrast, saturation lower and sharpen up the video some.\r\n \r\nAudio: audio was in good sync, was to flat for me so add some mids and bass to it.\r\n \r\n[IMG]http://lookpic.com/O/i2/579/FDKcj1jC.jpeg[/IMG]\r\n \r\n[IMG]http://lookpic.com/O/i2/643/iJP5tb4.png[/IMG]\r\n[IMG]http://lookpic.com/O/i2/536/b5aHVl22.png[/IMG]\r\n[IMG]http://lookpic.com/O/i2/706/5d3Lvg.png[/IMG]\r\n[IMG]http://lookpic.com/O/i2/1256/Ni95OBFR.png[/IMG]\r\n[IMG]http://lookpic.com/O/i2/842/iX1rh8n6.png[/IMG]\r\n[IMG]http://lookpic.com/O/i2/64/h8AYUHl1.png[/IMG]\r\n \r\nGreets go out too:\r\n \r\nTHC, Hive-CM8, BHRG, and all who put work in\r\n \r\n[IMG]http://www.myimg.us/images/02.20.12/24265.gif[/IMG","torrent":{"xt":"urn:btih:470062f016a9ef9ffbb99a9d3aec29dc67c88acb","amp;dn":"Star+Wars+The+Force+Awakens+2015+HDTS+XviD-INFERNO","amp;tr":["udp%3A%2F%2Ftracker.leechers-paradise.org%3A6969","udp%3A%2F%2Fzer0day.ch%3A1337","udp%3A%2F%2Fopen.demonii.com%3A1337","udp%3A%2F%2Ftracker.coppersurfer.tk%3A6969","udp%3A%2F%2Fexodus.desync.com%3A6969"],"infoHash":"470062f016a9ef9ffbb99a9d3aec29dc67c88acb","infoHashBuffer":{"type":"Buffer","data":[71,0,98,240,22,169,239,159,251,185,154,157,58,236,41,220,103,200,138,203]},"announce":[],"urlList":[]}}